<svg xmlns="http://www.w3.org/2000/svg" version="1.1" xmlns:xlink="http://www.w3.org/1999/xlink" width="512" height="512" x="0" y="0" viewBox="0 0 512 512" style="enable-background:new 0 0 512 512" xml:space="preserve"><g><g fill="#1d1d1b"><path d="M442.534 221.327H466.4v-14.776h-5.676l-10.809-18.037h-51.144v13.772h43.763zM156.642 183.246c-20.459-.567-19.898 19.04-19.898 19.04h139.823v-13.772s-99.458-4.701-119.925-5.268zM188.175 238h-8.802s.574 14.775 11.375 14.775c0 0-5.419-2.572-6.403-10.952z" fill="#adadad" opacity="1" data-original="#1d1d1b"></path><path d="M136.744 242.929v-36.378h159.722v20.459l-75.025 9.099h-8.138v12.581c-.032.22-.058.308-.077.415a14.155 14.155 0 0 1-.776 2.358 14.343 14.343 0 0 1-2.655 4.153 12.776 12.776 0 0 1-4.039 2.907c-1.507.693-3.135 1.077-4.757 1.229-.801.083-1.646.083-2.391.083H167.247l-13.451 42.2h-13.64c-13.639 0-11.929-17.622-11.929-17.622l15.342-31.261zm45.726 14.921h16.139c.783 0 1.483 0 2.208-.07 2.871-.247 5.608-1.425 7.52-3.521a12.307 12.307 0 0 0 2.284-3.57c.277-.655.505-1.349.662-2.02l.032-.149v-12.41H170.29v14.207l-2.404 7.534h14.584zM288.662 185.347v-5.753h10.49v5.753H314.3v2.795h-32.68v-2.795zm4.787-.057c.783 0 1.413-.638 1.413-1.426a1.419 1.419 0 1 0-2.838 0c0 .788.63 1.426 1.425 1.426zM34.055 302.036l90.949-61.677-3.755-28.925s-80.179 0-100.588 2.833C.24 217.1 5.987 225.896 5.987 225.896s5.741 41.05 12.112 66.568c6.385 25.521 15.956 9.572 15.956 9.572zM326.584 191.625v7.551a3.112 3.112 0 0 0 3.109 3.11h63.114a3.11 3.11 0 0 0 3.117-3.11v-7.551a3.107 3.107 0 0 0-3.117-3.111h-63.114a3.109 3.109 0 0 0-3.109 3.111z" fill="#adadad" opacity="1" data-original="#1d1d1b"></path><path d="M263.521 270.863a105.857 105.857 0 0 1-7.072-14.396 93.66 93.66 0 0 1-2.668-7.589 86.575 86.575 0 0 1-1.073-3.894 50.332 50.332 0 0 1-.455-1.986 31.112 31.112 0 0 1-.384-2.071l3.936-.553c.083.534.201 1.196.334 1.798.133.616.278 1.235.429 1.854.31 1.242.645 2.472 1.022 3.695a87.445 87.445 0 0 0 2.556 7.269 101.553 101.553 0 0 0 6.808 13.853c5.21 8.892 11.74 17.012 19.235 24.109 7.116 6.756 15.097 12.571 23.621 17.469l2.396-2.133s-46.736-33.241-47.72-74.88l-43.046 5.224s5.679 67.63 63.656 93.774l3.66-3.256a94.501 94.501 0 0 1-14.34-8.446c-8.379-5.969-15.761-13.273-22-21.381-6.252-8.12-11.412-17.021-15.582-26.34a145.48 145.48 0 0 1-5.501-14.276 132.22 132.22 0 0 1-2.183-7.345c-.656-2.484-1.244-4.928-1.716-7.546l3.924-.65c.422 2.335 1.01 4.797 1.634 7.174a128.348 128.348 0 0 0 2.121 7.131 143.554 143.554 0 0 0 5.355 13.89c4.044 9.06 9.061 17.692 15.104 25.534 6.031 7.829 13.122 14.845 21.153 20.572a91.796 91.796 0 0 0 15.274 8.8l6.296-5.603a85.933 85.933 0 0 1-8.764-4.982c-8.39-5.443-15.809-12.251-22.264-19.797-6.454-7.559-11.974-15.85-16.705-24.536-2.366-4.346-4.53-8.8-6.492-13.344a148.792 148.792 0 0 1-2.789-6.875c-.883-2.334-1.696-4.632-2.429-7.085l3.823-1.099c.662 2.222 1.483 4.538 2.328 6.777a145.04 145.04 0 0 0 2.719 6.704 162.622 162.622 0 0 0 6.335 13.017c4.611 8.479 9.993 16.541 16.232 23.853 6.246 7.299 13.388 13.841 21.412 19.047a81.256 81.256 0 0 0 9.811 5.458l5.166-4.595c-8.34-4.9-16.188-10.686-23.229-17.365-7.746-7.345-14.515-15.761-19.928-24.979zM347.839 209.074h-42.913v11.369zm48.086-2.523v17.053l-94.917 12.505v-29.558zM122.921 212.235 126.266 238h8.592v-25.765zM280.359 190.236h44.325v10.321h-44.325zM494.619 190.236h9.615v16.314h-19.229v-5.993zm4.808 14.403v-8.156h-4.808l-4.813 5.16v2.996zM468.294 209.712h38.464v9.092h-38.464zM398.771 206.551h40.918v11.369h-40.918z" fill="#adadad" opacity="1" data-original="#1d1d1b"></path></g></g></svg>